<?xml version="1.0" encoding="UTF-8" standalone="no"?>
<!-- Created with Inkscape (http://www.inkscape.org/) -->

<svg
   xmlns:dc="http://purl.org/dc/elements/1.1/"
   xmlns:cc="http://creativecommons.org/ns#"
   xmlns:rdf="http://www.w3.org/1999/02/22-rdf-syntax-ns#"
   xmlns:svg="http://www.w3.org/2000/svg"
   xmlns="http://www.w3.org/2000/svg"
   xmlns:xlink="http://www.w3.org/1999/xlink"
   xmlns:sodipodi="http://sodipodi.sourceforge.net/DTD/sodipodi-0.dtd"
   xmlns:inkscape="http://www.inkscape.org/namespaces/inkscape"
   width="108.62186mm"
   height="37.625542mm"
   viewBox="0 0 384.88059 133.31885"
   id="svg2"
   version="1.1"
   inkscape:version="0.91 r13725"
   sodipodi:docname="papertape_header.svg">
  <defs
     id="defs4">
    <linearGradient
       inkscape:collect="always"
       id="linearGradient8138">
      <stop
         style="stop-color:#370000;stop-opacity:1"
         offset="0"
         id="stop8140" />
      <stop
         style="stop-color:#b71414;stop-opacity:0.87058824"
         offset="1"
         id="stop8142" />
    </linearGradient>
    <linearGradient
       inkscape:collect="always"
       xlink:href="#linearGradient8138"
       id="linearGradient8144"
       x1="486.31815"
       y1="176.90796"
       x2="532.56842"
       y2="223.1582"
       gradientUnits="userSpaceOnUse" />
    <linearGradient
       inkscape:collect="always"
       xlink:href="#linearGradient8138"
       id="linearGradient8146"
       x1="440.48528"
       y1="176.90796"
       x2="485.94589"
       y2="222.36856"
       gradientUnits="userSpaceOnUse" />
    <linearGradient
       inkscape:collect="always"
       xlink:href="#linearGradient8138"
       id="linearGradient8148"
       x1="393.21163"
       y1="176.29595"
       x2="438.6564"
       y2="221.74072"
       gradientUnits="userSpaceOnUse" />
    <linearGradient
       inkscape:collect="always"
       xlink:href="#linearGradient8138"
       id="linearGradient8150"
       x1="363.32505"
       y1="176.90796"
       x2="408.93011"
       y2="222.51305"
       gradientUnits="userSpaceOnUse" />
    <linearGradient
       inkscape:collect="always"
       xlink:href="#linearGradient8138"
       id="linearGradient8152"
       x1="317.49855"
       y1="176.90796"
       x2="358.32303"
       y2="217.73245"
       gradientUnits="userSpaceOnUse" />
    <linearGradient
       inkscape:collect="always"
       xlink:href="#linearGradient8138"
       id="linearGradient8154"
       x1="278.06417"
       y1="176.90796"
       x2="323.62106"
       y2="222.46483"
       gradientUnits="userSpaceOnUse" />
    <linearGradient
       inkscape:collect="always"
       xlink:href="#linearGradient8138"
       id="linearGradient8156"
       x1="232.23129"
       y1="176.90796"
       x2="275.12289"
       y2="219.79956"
       gradientUnits="userSpaceOnUse" />
    <linearGradient
       inkscape:collect="always"
       xlink:href="#linearGradient8138"
       id="linearGradient8158"
       x1="184.95763"
       y1="176.29595"
       x2="229.27895"
       y2="220.61726"
       gradientUnits="userSpaceOnUse" />
    <linearGradient
       inkscape:collect="always"
       xlink:href="#linearGradient8138"
       id="linearGradient8160"
       x1="139.26076"
       y1="176.90796"
       x2="184.58287"
       y2="222.23007"
       gradientUnits="userSpaceOnUse" />
  </defs>
  <sodipodi:namedview
     id="base"
     pagecolor="#ffffff"
     bordercolor="#666666"
     borderopacity="1.0"
     inkscape:pageopacity="0.0"
     inkscape:pageshadow="2"
     inkscape:zoom="2.4728857"
     inkscape:cx="185.0873"
     inkscape:cy="66.4544"
     inkscape:document-units="px"
     inkscape:current-layer="text8068"
     showgrid="false"
     fit-margin-top="1"
     fit-margin-left="1"
     fit-margin-right="1"
     fit-margin-bottom="1"
     inkscape:window-width="1920"
     inkscape:window-height="1027"
     inkscape:window-x="-8"
     inkscape:window-y="-8"
     inkscape:window-maximized="1" />
  <metadata
     id="metadata7">
    <rdf:RDF>
      <cc:Work
         rdf:about="">
        <dc:format>image/svg+xml</dc:format>
        <dc:type
           rdf:resource="http://purl.org/dc/dcmitype/StillImage" />
        <dc:title></dc:title>
      </cc:Work>
    </rdf:RDF>
  </metadata>
  <g
     inkscape:label="Layer 1"
     inkscape:groupmode="layer"
     id="layer1"
     transform="translate(-135.71745,-126.78376)">
    <g
       style="font-style:normal;font-variant:normal;font-weight:100;font-stretch:normal;font-size:136.00260925px;line-height:125%;font-family:'AR BONNIE';-inkscape-font-specification:'AR BONNIE, Thin';text-align:start;letter-spacing:0px;word-spacing:0px;writing-mode:lr-tb;text-anchor:start;fill:#000000;fill-opacity:1;stroke:none;stroke-width:1px;stroke-linecap:butt;stroke-linejoin:miter;stroke-opacity:1"
       id="text8068">
      <path
         d="m 139.26076,131.55109 5.98411,0 q 14.96029,0 25.43249,10.74421 10.4722,10.7442 10.4722,25.84049 0,15.2323 -9.92819,25.29649 -9.92819,10.06419 -25.29648,11.69622 l 0,17.13633 -6.66413,0 0,-90.71374 z m 35.36068,36.5847 q 0,-12.51224 -8.02416,-20.67239 -8.02415,-8.16016 -20.67239,-9.52019 l 0,60.38516 q 12.10423,0 20.40039,-8.84017 8.29616,-8.84017 8.29616,-21.35241 z"
         style="fill-opacity:1;fill:url(#linearGradient8160)"
         id="path8120" />
      <path
         d="m 212.70217,222.26483 0,-61.88119 -15.3683,0 0,61.88119 -6.66413,0 0,-61.88119 -3.53606,0 -2.17605,-6.66412 5.71211,0 q 0,-11.42422 1.63204,-15.6403 2.99205,-7.75215 12.64824,-7.75215 7.75215,0 11.28821,5.1681 2.99206,4.35208 2.99206,12.37623 l 0,74.39343 -6.52812,0 z m 0,-76.70547 q 0,-3.67207 -1.90404,-6.12012 -1.90404,-2.44804 -5.4401,-2.44804 -3.80808,0 -5.98412,2.44804 -2.04004,2.31205 -2.04004,6.12012 l 0,8.16016 15.3683,0 0,-8.16016 z"
         style="fill-opacity:1;fill:url(#linearGradient8158)"
         id="path8122" />
      <path
         d="m 232.23129,131.55109 5.98412,0 q 15.09629,0 25.56849,10.74421 10.4722,10.7442 10.4722,25.84049 0,15.09629 -10.06419,25.29649 -9.92819,10.06419 -25.29649,11.69622 l 0,17.13633 -6.66413,0 0,-90.71374 z m 35.36068,36.4487 q 0,-12.37624 -8.16015,-20.53639 -8.02416,-8.16016 -20.5364,-9.52019 l 0,60.38516 q 12.10424,0 20.40039,-8.97617 8.29616,-8.97617 8.29616,-21.35241 z"
         style="fill-opacity:1;fill:url(#linearGradient8156)"
         id="path8124" />
      <path
         d="m 283.91228,222.26483 0,-61.74518 -3.40006,0 -2.44805,-6.66413 5.84811,0 0,-22.30443 23.25645,0 0,6.66413 -16.59232,0 0,15.6403 15.77631,0 2.44804,6.66413 -18.22435,0 0,55.08105 16.59232,0 0,6.66413 -23.25645,0 z"
         style="fill-opacity:1;fill:url(#linearGradient8154)"
         id="path8126" />
      <path
         d="m 347.55513,222.26483 -23.39245,-19.58437 0,19.58437 -6.66413,0 0,-90.71374 5.0321,0 q 15.09629,0 25.84049,10.3362 10.74421,10.3362 10.74421,25.56849 0,12.24023 -6.66413,21.21641 -6.66412,8.97617 -18.49635,13.46426 l 24.20846,20.12838 -10.6082,0 z m 4.89609,-54.26504 q 0,-12.37624 -8.02415,-20.53639 -7.88815,-8.29616 -20.26439,-9.52019 l 0,59.43314 q 12.24024,-1.36002 19.99238,-9.11217 8.29616,-8.16016 8.29616,-20.26439 z"
         style="fill-opacity:1;fill:url(#linearGradient8152)"
         id="path8128" />
      <path
         d="m 374.06926,222.26483 0,-84.04961 -10.74421,0 0,-6.66413 28.01654,0 0,6.66413 -10.60821,0 0,84.04961 -6.66412,0 z"
         style="fill-opacity:1;fill:url(#linearGradient8150)"
         id="path8130" />
      <path
         d="m 420.95616,222.26483 0,-61.88119 -15.36829,0 0,61.88119 -6.66413,0 0,-61.88119 -3.53607,0 -2.17604,-6.66412 5.71211,0 q 0,-11.42422 1.63203,-15.6403 2.99206,-7.75215 12.64825,-7.75215 7.75214,0 11.28821,5.1681 2.99206,4.35208 2.99206,12.37623 l 0,74.39343 -6.52813,0 z m 0,-76.70547 q 0,-3.67207 -1.90403,-6.12012 -1.90404,-2.44804 -5.44011,-2.44804 -3.80807,0 -5.98411,2.44804 -2.04004,2.31205 -2.04004,6.12012 l 0,8.16016 15.36829,0 0,-8.16016 z"
         style="fill-opacity:1;fill:url(#linearGradient8148)"
         id="path8132" />
      <path
         d="m 440.48528,131.55109 5.98411,0 q 15.09629,0 25.56849,10.74421 10.4722,10.7442 10.4722,25.84049 0,15.09629 -10.06419,25.29649 -9.92819,10.06419 -25.29648,11.69622 l 0,17.13633 -6.66413,0 0,-90.71374 z m 35.36068,36.4487 q 0,-12.37624 -8.16016,-20.53639 -8.02415,-8.16016 -20.53639,-9.52019 l 0,60.38516 q 12.10423,0 20.40039,-8.97617 8.29616,-8.97617 8.29616,-21.35241 z"
         style="fill-opacity:1;fill:url(#linearGradient8146)"
         id="path8134" />
      <path
         d="m 492.16627,222.26483 0,-61.74518 -3.40007,0 -2.44805,-6.66413 5.84812,0 0,-22.30443 23.25644,0 0,6.66413 -16.59231,0 0,15.6403 15.7763,0 2.44804,6.66413 -18.22434,0 0,55.08105 16.59231,0 0,6.66413 -23.25644,0 z"
         style="fill-opacity:1;fill:url(#linearGradient8144)"
         id="path8136" />
    </g>
    <g
       style="font-style:normal;font-variant:normal;font-weight:normal;font-stretch:normal;font-size:29.83788681px;line-height:125%;font-family:'Century Gothic';-inkscape-font-specification:'Century Gothic, Normal';text-align:start;letter-spacing:0px;word-spacing:0px;writing-mode:lr-tb;text-anchor:start;fill:#000000;fill-opacity:1;stroke:none;stroke-width:1px;stroke-linecap:butt;stroke-linejoin:miter;stroke-opacity:1"
       id="text8072">
      <path
         d="m 171.82208,236.64309 -1.31123,1.35495 q -1.63176,-1.58805 -3.19067,-1.58805 -0.99071,0 -1.70461,0.65561 -0.69932,0.65562 -0.69932,1.52978 0,0.77217 0.58277,1.47149 0.58277,0.7139 2.44764,1.67547 2.2728,1.18011 3.08868,2.27281 0.80131,1.10727 0.80131,2.49135 0,1.95228 -1.36951,3.30722 -1.36951,1.35495 -3.42378,1.35495 -1.36951,0 -2.62247,-0.59734 -1.23839,-0.59734 -2.05427,-1.64633 l 1.2821,-1.45693 q 1.55891,1.76288 3.30722,1.76288 1.22382,0 2.08341,-0.78674 0.85959,-0.78674 0.85959,-1.8503 0,-0.87415 -0.5682,-1.55891 -0.5682,-0.67019 -2.5642,-1.69004 -2.14168,-1.10726 -2.91385,-2.18539 -0.77217,-1.07813 -0.77217,-2.46221 0,-1.80659 1.22382,-3.00127 1.23838,-1.19468 3.11782,-1.19468 2.18539,0 4.39992,2.14168 z"
         style=""
         id="path8079" />
      <path
         d="m 182.95301,234.50141 q 3.65689,0 6.06082,2.65161 2.1854,2.4185 2.1854,5.72573 0,3.32179 -2.31652,5.81314 -2.30195,2.47678 -5.9297,2.47678 -3.64232,0 -5.95883,-2.47678 -2.30195,-2.49135 -2.30195,-5.81314 0,-3.29266 2.18539,-5.71116 2.40394,-2.66618 6.07539,-2.66618 z m 0,1.99599 q -2.53505,0 -4.35621,1.87944 -1.82116,1.87944 -1.82116,4.54561 0,1.71918 0.83045,3.20525 0.83045,1.48606 2.24367,2.30194 1.41322,0.80131 3.10325,0.80131 1.69004,0 3.10326,-0.80131 1.41322,-0.81588 2.24367,-2.30194 0.83045,-1.48607 0.83045,-3.20525 0,-2.66617 -1.83573,-4.54561 -1.82116,-1.87944 -4.34165,-1.87944 z"
         style=""
         id="path8081" />
      <path
         d="m 194.71042,234.90935 2.05427,0 0,7.40119 q 0,2.70989 0.29139,3.72974 0.43708,1.45693 1.6609,2.30195 1.23839,0.84501 2.94299,0.84501 1.70461,0 2.88472,-0.81588 1.19468,-0.83044 1.64633,-2.17082 0.30595,-0.91786 0.30595,-3.89 l 0,-7.40119 2.08341,0 0,7.78 q 0,3.27808 -0.77217,4.93898 -0.75761,1.6609 -2.30195,2.6079 -1.52977,0.93244 -3.84629,0.93244 -2.31651,0 -3.87543,-0.93244 -1.54434,-0.947 -2.31651,-2.62247 -0.75761,-1.69003 -0.75761,-5.07011 l 0,-7.6343 z"
         style=""
         id="path8083" />
      <path
         d="m 212.32469,234.90935 2.0834,0 0,2.31652 q 0.93244,-1.36952 1.96686,-2.0397 1.03442,-0.68476 2.15625,-0.68476 0.84502,0 1.80659,0.53906 l -1.06356,1.71918 q -0.64104,-0.27682 -1.07812,-0.27682 -1.01985,0 -1.96686,0.84502 -0.947,0.83045 -1.44235,2.59333 -0.37881,1.35495 -0.37881,5.47805 l 0,5.3615 -2.0834,0 0,-15.85138 z"
         style=""
         id="path8085" />
      <path
         d="m 237.45669,238.20201 -1.61719,1.00528 q -2.09797,-2.78274 -5.72572,-2.78274 -2.89929,0 -4.82244,1.86487 -1.90857,1.86487 -1.90857,4.53105 0,1.73374 0.87416,3.26352 0.88872,1.52977 2.4185,2.37479 1.54434,0.84502 3.45292,0.84502 3.49662,0 5.71115,-2.78273 l 1.61719,1.06355 q -1.1364,1.70461 -3.05955,2.65161 -1.90857,0.93244 -4.35621,0.93244 -3.75887,0 -6.23565,-2.38937 -2.47678,-2.38936 -2.47678,-5.81314 0,-2.30194 1.15097,-4.2688 1.16555,-1.98142 3.19068,-3.08868 2.02513,-1.10727 4.53104,-1.10727 1.57348,0 3.03041,0.48079 1.4715,0.48078 2.49135,1.25295 1.01985,0.77218 1.73374,1.96686 z"
         style=""
         id="path8087" />
      <path
         d="m 254.70672,245.50122 1.71918,0.90329 q -0.84502,1.6609 -1.95228,2.68075 -1.10727,1.01985 -2.49135,1.55891 -1.38408,0.5245 -3.1324,0.5245 -3.87543,0 -6.06082,-2.53506 -2.18539,-2.54962 -2.18539,-5.75486 0,-3.01585 1.8503,-5.37607 2.34565,-3.00127 6.27936,-3.00127 4.05026,0 6.46876,3.07412 1.71917,2.17082 1.74831,5.41977 l -14.24875,0 q 0.0583,2.76816 1.76288,4.54562 1.70461,1.76288 4.21052,1.76288 1.20925,0 2.34566,-0.42251 1.15097,-0.42251 1.95228,-1.12183 0.80131,-0.69933 1.73374,-2.25824 z m 0,-4.2688 q -0.40794,-1.63176 -1.19468,-2.6079 -0.77217,-0.97615 -2.05427,-1.57349 -1.28209,-0.59734 -2.69531,-0.59734 -2.33109,0 -4.00655,1.50064 -1.22382,1.0927 -1.8503,3.27809 l 11.80111,0 z"
         style=""
         id="path8089" />
      <path
         d="m 284.42806,238.20201 -1.61719,1.00528 q -2.09798,-2.78274 -5.72573,-2.78274 -2.89929,0 -4.82243,1.86487 -1.90858,1.86487 -1.90858,4.53105 0,1.73374 0.87416,3.26352 0.88872,1.52977 2.4185,2.37479 1.54434,0.84502 3.45292,0.84502 3.49663,0 5.71116,-2.78273 l 1.61719,1.06355 q -1.13641,1.70461 -3.05955,2.65161 -1.90858,0.93244 -4.35622,0.93244 -3.75887,0 -6.23565,-2.38937 -2.47678,-2.38936 -2.47678,-5.81314 0,-2.30194 1.15098,-4.2688 1.16554,-1.98142 3.19067,-3.08868 2.02513,-1.10727 4.53104,-1.10727 1.57349,0 3.03041,0.48079 1.4715,0.48078 2.49135,1.25295 1.01985,0.77218 1.73375,1.96686 z"
         style=""
         id="path8091" />
      <path
         d="m 295.8358,234.50141 q 3.65689,0 6.06082,2.65161 2.18539,2.4185 2.18539,5.72573 0,3.32179 -2.31651,5.81314 -2.30195,2.47678 -5.9297,2.47678 -3.64232,0 -5.95883,-2.47678 -2.30195,-2.49135 -2.30195,-5.81314 0,-3.29266 2.18539,-5.71116 2.40393,-2.66618 6.07539,-2.66618 z m 0,1.99599 q -2.53505,0 -4.35621,1.87944 -1.82116,1.87944 -1.82116,4.54561 0,1.71918 0.83045,3.20525 0.83044,1.48606 2.24366,2.30194 1.41323,0.80131 3.10326,0.80131 1.69004,0 3.10326,-0.80131 1.41322,-0.81588 2.24367,-2.30194 0.83045,-1.48607 0.83045,-3.20525 0,-2.66617 -1.83573,-4.54561 -1.82116,-1.87944 -4.34165,-1.87944 z"
         style=""
         id="path8093" />
      <path
         d="m 323.6777,228.79025 0,21.97048 -2.01056,0 0,-2.72446 q -1.28209,1.55891 -2.88471,2.34566 -1.58806,0.78674 -3.48206,0.78674 -3.36551,0 -5.75487,-2.43307 -2.37479,-2.44764 -2.37479,-5.94427 0,-3.42378 2.40393,-5.85685 2.40393,-2.43307 5.784,-2.43307 1.95229,0 3.52577,0.83045 1.58805,0.83045 2.78273,2.49135 l 0,-9.03296 2.01056,0 z m -8.15879,7.67801 q -1.70461,0 -3.14697,0.84502 -1.44236,0.83045 -2.30194,2.34566 -0.84502,1.5152 -0.84502,3.20524 0,1.67546 0.85958,3.20524 0.85959,1.52977 2.30195,2.38936 1.45693,0.84502 3.11783,0.84502 1.67546,0 3.1761,-0.84502 1.50064,-0.84502 2.30195,-2.28738 0.81588,-1.44236 0.81588,-3.24895 0,-2.75359 -1.82116,-4.60389 -1.80659,-1.8503 -4.4582,-1.8503 z"
         style=""
         id="path8095" />
      <path
         d="m 341.65619,245.50122 1.71917,0.90329 q -0.84502,1.6609 -1.95228,2.68075 -1.10727,1.01985 -2.49135,1.55891 -1.38408,0.5245 -3.13239,0.5245 -3.87543,0 -6.06082,-2.53506 -2.1854,-2.54962 -2.1854,-5.75486 0,-3.01585 1.8503,-5.37607 2.34566,-3.00127 6.27936,-3.00127 4.05026,0 6.46876,3.07412 1.71918,2.17082 1.74832,5.41977 l -14.24876,0 q 0.0583,2.76816 1.76288,4.54562 1.70461,1.76288 4.21052,1.76288 1.20926,0 2.34566,-0.42251 1.15097,-0.42251 1.95228,-1.12183 0.80131,-0.69933 1.73375,-2.25824 z m 0,-4.2688 q -0.40794,-1.63176 -1.19468,-2.6079 -0.77218,-0.97615 -2.05427,-1.57349 -1.2821,-0.59734 -2.69532,-0.59734 -2.33108,0 -4.00655,1.50064 -1.22382,1.0927 -1.8503,3.27809 l 11.80112,0 z"
         style=""
         id="path8097" />
      <path
         d="m 355.22019,234.90935 2.08341,0 0,2.31652 q 0.93244,-1.36952 1.96685,-2.0397 1.03442,-0.68476 2.15626,-0.68476 0.84502,0 1.80659,0.53906 l -1.06356,1.71918 q -0.64105,-0.27682 -1.07813,-0.27682 -1.01984,0 -1.96685,0.84502 -0.947,0.83045 -1.44236,2.59333 -0.3788,1.35495 -0.3788,5.47805 l 0,5.3615 -2.08341,0 0,-15.85138 z"
         style=""
         id="path8099" />
      <path
         d="m 378.3125,245.50122 1.71917,0.90329 q -0.84502,1.6609 -1.95228,2.68075 -1.10727,1.01985 -2.49135,1.55891 -1.38408,0.5245 -3.13239,0.5245 -3.87543,0 -6.06082,-2.53506 -2.1854,-2.54962 -2.1854,-5.75486 0,-3.01585 1.8503,-5.37607 2.34566,-3.00127 6.27936,-3.00127 4.05026,0 6.46876,3.07412 1.71918,2.17082 1.74832,5.41977 l -14.24876,0 q 0.0583,2.76816 1.76288,4.54562 1.70461,1.76288 4.21053,1.76288 1.20925,0 2.34565,-0.42251 1.15097,-0.42251 1.95228,-1.12183 0.80131,-0.69933 1.73375,-2.25824 z m 0,-4.2688 q -0.40794,-1.63176 -1.19468,-2.6079 -0.77217,-0.97615 -2.05427,-1.57349 -1.2821,-0.59734 -2.69532,-0.59734 -2.33108,0 -4.00655,1.50064 -1.22382,1.0927 -1.8503,3.27809 l 11.80112,0 z"
         style=""
         id="path8101" />
      <path
         d="m 384.40246,234.90935 2.02513,0 0,2.91386 q 1.20925,-1.6609 2.78273,-2.49135 1.57348,-0.83045 3.5112,-0.83045 3.38007,0 5.784,2.43307 2.40393,2.43307 2.40393,5.85685 0,3.49663 -2.38936,5.94427 -2.37479,2.43307 -5.7403,2.43307 -1.894,0 -3.48206,-0.78674 -1.58805,-0.78675 -2.87014,-2.34566 l 0,8.52303 -2.02513,0 0,-21.64995 z m 8.15879,1.55891 q -2.65161,0 -4.47277,1.8503 -1.80659,1.8503 -1.80659,4.60389 0,1.80659 0.80131,3.24895 0.81588,1.44236 2.31652,2.28738 1.5152,0.84502 3.19067,0.84502 1.64633,0 3.08869,-0.84502 1.45693,-0.85959 2.31651,-2.38936 0.85959,-1.52978 0.85959,-3.20524 0,-1.69004 -0.85959,-3.20524 -0.84501,-1.51521 -2.28737,-2.34566 -1.44236,-0.84502 -3.14697,-0.84502 z"
         style=""
         id="path8103" />
      <path
         d="m 412.21523,234.50141 q 3.65689,0 6.06082,2.65161 2.18539,2.4185 2.18539,5.72573 0,3.32179 -2.31652,5.81314 -2.30194,2.47678 -5.92969,2.47678 -3.64232,0 -5.95884,-2.47678 -2.30195,-2.49135 -2.30195,-5.81314 0,-3.29266 2.1854,-5.71116 2.40393,-2.66618 6.07539,-2.66618 z m 0,1.99599 q -2.53506,0 -4.35622,1.87944 -1.82116,1.87944 -1.82116,4.54561 0,1.71918 0.83045,3.20525 0.83045,1.48606 2.24367,2.30194 1.41322,0.80131 3.10326,0.80131 1.69003,0 3.10325,-0.80131 1.41322,-0.81588 2.24367,-2.30194 0.83045,-1.48607 0.83045,-3.20525 0,-2.66617 -1.83573,-4.54561 -1.82116,-1.87944 -4.34164,-1.87944 z"
         style=""
         id="path8105" />
      <path
         d="m 432.20429,236.64309 -1.31124,1.35495 q -1.63176,-1.58805 -3.19067,-1.58805 -0.99071,0 -1.70461,0.65561 -0.69932,0.65562 -0.69932,1.52978 0,0.77217 0.58277,1.47149 0.58277,0.7139 2.44764,1.67547 2.27281,1.18011 3.08869,2.27281 0.80131,1.10727 0.80131,2.49135 0,1.95228 -1.36952,3.30722 -1.36951,1.35495 -3.42378,1.35495 -1.36951,0 -2.62247,-0.59734 -1.23839,-0.59734 -2.05427,-1.64633 l 1.2821,-1.45693 q 1.55891,1.76288 3.30723,1.76288 1.22382,0 2.0834,-0.78674 0.85959,-0.78674 0.85959,-1.8503 0,-0.87415 -0.5682,-1.55891 -0.5682,-0.67019 -2.56419,-1.69004 -2.14169,-1.10726 -2.91386,-2.18539 -0.77217,-1.07813 -0.77217,-2.46221 0,-1.80659 1.22382,-3.00127 1.23839,-1.19468 3.11782,-1.19468 2.1854,0 4.39993,2.14168 z"
         style=""
         id="path8107" />
      <path
         d="m 436.54592,228.38231 q 0.69933,0 1.19468,0.49536 0.49536,0.49535 0.49536,1.19468 0,0.68475 -0.49536,1.18011 -0.49535,0.49536 -1.19468,0.49536 -0.68475,0 -1.18011,-0.49536 -0.49536,-0.49536 -0.49536,-1.18011 0,-0.69933 0.49536,-1.19468 0.49536,-0.49536 1.18011,-0.49536 z m -1.01985,6.52704 2.05427,0 0,15.85138 -2.05427,0 0,-15.85138 z"
         style=""
         id="path8109" />
      <path
         d="m 443.6703,229.02336 2.05427,0 0,5.88599 3.23438,0 0,1.74831 -3.23438,0 0,14.10307 -2.05427,0 0,-14.10307 -2.78273,0 0,-1.74831 2.78273,0 0,-5.88599 z"
         style=""
         id="path8111" />
      <path
         d="m 459.59451,234.50141 q 3.65689,0 6.06083,2.65161 2.18539,2.4185 2.18539,5.72573 0,3.32179 -2.31652,5.81314 -2.30194,2.47678 -5.9297,2.47678 -3.64232,0 -5.95883,-2.47678 -2.30195,-2.49135 -2.30195,-5.81314 0,-3.29266 2.18539,-5.71116 2.40394,-2.66618 6.07539,-2.66618 z m 0,1.99599 q -2.53505,0 -4.35621,1.87944 -1.82116,1.87944 -1.82116,4.54561 0,1.71918 0.83045,3.20525 0.83045,1.48606 2.24367,2.30194 1.41322,0.80131 3.10325,0.80131 1.69004,0 3.10326,-0.80131 1.41322,-0.81588 2.24367,-2.30194 0.83045,-1.48607 0.83045,-3.20525 0,-2.66617 -1.83573,-4.54561 -1.82116,-1.87944 -4.34165,-1.87944 z"
         style=""
         id="path8113" />
      <path
         d="m 470.84202,234.90935 2.08341,0 0,2.31652 q 0.93243,-1.36952 1.96685,-2.0397 1.03442,-0.68476 2.15625,-0.68476 0.84502,0 1.8066,0.53906 l -1.06356,1.71918 q -0.64105,-0.27682 -1.07813,-0.27682 -1.01985,0 -1.96685,0.84502 -0.94701,0.83045 -1.44236,2.59333 -0.3788,1.35495 -0.3788,5.47805 l 0,5.3615 -2.08341,0 0,-15.85138 z"
         style=""
         id="path8115" />
      <path
         d="m 478.88426,234.90935 2.15625,0 5.44891,12.20906 5.28865,-12.20906 2.17082,0 -9.45546,21.64995 -2.15625,0 3.05955,-6.99325 -6.51247,-14.6567 z"
         style=""
         id="path8117" />
    </g>
  </g>
</svg>
